<?xml version="1.0" encoding="UTF-8"?>
<!DOCTYPE svg PUBLIC "-//W3C//DTD SVG 1.1//EN" "http://www.w3.org/Graphics/SVG/1.1/DTD/svg11.dtd">
<!-- Creator: CorelDRAW (Evaluation Version) -->
<svg xmlns="http://www.w3.org/2000/svg" xml:space="preserve" width="150mm" height="30mm" version="1.1" style="shape-rendering:geometricPrecision; text-rendering:geometricPrecision; image-rendering:optimizeQuality; fill-rule:evenodd; clip-rule:evenodd"
viewBox="0 0 15000 3000"
 xmlns:xlink="http://www.w3.org/1999/xlink"
 xmlns:xodm="http://www.corel.com/coreldraw/odm/2003">
 <defs>
  <style type="text/css">
   <![CDATA[
    .fil0 {fill:none;fill-rule:nonzero}
    .fil2 {fill:#89E683;fill-rule:nonzero}
    .fil1 {fill:white;fill-rule:nonzero}
   ]]>
  </style>
 </defs>
 <g id="Layer_x0020_1">
  <metadata id="CorelCorpID_0Corel-Layer"/>
  <polygon class="fil0" points="-0,2999.99 15000,2999.99 15000,0.01 -0,0.01 "/>
  <path class="fil1" d="M9601.54 1660.6l-374.94 0 0 0.03 0 -0.27c-28.11,0 -51.86,-23.75 -51.86,-51.86 0,-28.11 23.75,-51.86 51.86,-51.86l0 -0.01 0 0.01 374.94 0 0 103.96zm-51.84 -647.73l-0.01 0.02 0 -0.02 -309.75 0 -284.89 0c33.18,126.32 148.31,219.77 284.89,219.77l0 0.26 309.75 0 0 -0.02 0.01 0.02c28.1,0 51.84,23.75 51.84,51.85 0,28.11 -23.75,51.85 -51.85,51.85l-323.09 0 0 0.02 0 -0.02c-149.93,0 -271.9,121.97 -271.9,271.9 0,149.93 121.98,271.9 271.9,271.9l0 0.24 484.96 0 0 -0.24 110.01 0 0 -595.65c0,-149.92 -121.96,-271.88 -271.87,-271.88z"/>
  <path class="fil1" d="M8447.61 1659.83c-56.5,0 -110.01,-22.38 -150.67,-63.04 -40.65,-40.66 -63.04,-94.16 -63.04,-150.67 0,-56.5 22.39,-110.01 63.04,-150.66 40.66,-40.66 94.17,-63.05 150.67,-63.05l211.64 0 0 427.42 -211.64 0zm218.58 -647.46l-6.94 0 -211.95 0 0 0.01c-115.17,0.09 -223.81,45.34 -305.94,127.49 -82.22,82.21 -127.5,190.97 -127.5,306.25 0,115.28 45.28,224.05 127.5,306.26 82.13,82.14 190.78,127.4 305.94,127.48l0 0.01 211.95 0 20.77 0 199.27 0 0 -803.94 0 -63.56 0 -221.4c-106.26,27.79 -189.3,113.6 -213.1,221.4z"/>
  <path class="fil1" d="M6257.57 1296.06c40.65,-40.66 94.16,-63.05 150.66,-63.05l0 -0.26 161.54 0 0 -0.05 0 0.28c28.12,0 51.87,23.75 51.87,51.87 0,28.11 -23.75,51.86 -51.87,51.86l-344.24 0c8.9,-14.56 19.6,-28.22 32.04,-40.65zm299.21 364.64l0 0.02 0 -0.29 -148.54 0c-56.51,0 -110.01,-22.38 -150.67,-63.04 -12.44,-12.44 -23.14,-26.08 -32.04,-40.65l344.24 0c149.94,0 271.9,-121.97 271.9,-271.89 0,-149.93 -121.96,-271.9 -271.88,-271.9l-0.02 -0.24 -166.23 0 -0.04 0.38c-113.52,1.23 -220.44,46.29 -301.52,127.38 -82.21,82.22 -127.49,190.98 -127.49,306.26 0,115.27 45.28,224.04 127.49,306.25 77.73,77.73 179.2,122.38 287.46,127.03l0 0.47 167.34 0 0 -0.02 0 0.02 284.89 0c-33.17,-126.32 -148.31,-219.78 -284.89,-219.78z"/>
  <path class="fil1" d="M5742.49 1659.29c-40.37,0 -74.49,-34.12 -74.49,-74.49l0 -353.47 74.49 0 0 -0.26c136.58,0 251.72,-93.46 284.89,-219.77l-284.89 0 -74.62 0 0 -222.1c-123.56,32.45 -215.63,143.34 -219.58,276.01l-0.32 0.05 0 519.54c0,162.41 132.11,294.53 294.52,294.53 1.71,0 3.4,0.14 5.09,0.27l279.96 -0.85c-32.99,-126.59 -148.27,-219.46 -285.05,-219.46z"/>
  <path class="fil1" d="M5270.73 1011.3l-0.04 0.55c-115.27,0.01 -224.02,45.29 -306.22,127.49 -81.42,81.42 -126.55,188.9 -127.41,302.95l-0.08 0 0 437.81 220.04 0 0 -434.5c0,-56.51 22.38,-110.01 63.04,-150.67 40.65,-40.65 94.16,-63.04 150.67,-63.04l0 -0.56 101.95 0 0 -220.03 -101.95 0z"/>
  <path class="fil1" d="M4327.95 1231.82c-117.84,0 -213.71,95.86 -213.71,213.71 0,117.85 95.87,213.71 213.71,213.71 117.85,0 213.72,-95.86 213.72,-213.71 0,-117.85 -95.87,-213.71 -213.72,-213.71zm0 647.46c-239.17,0 -433.75,-194.58 -433.75,-433.75 0,-239.17 194.58,-433.75 433.75,-433.75 239.18,0 433.76,194.58 433.76,433.75 0,239.17 -194.58,433.75 -433.76,433.75z"/>
  <path class="fil1" d="M2602.76 1337.07l-323.76 0 -0.01 0.07 0 -0.07c-28.4,0 -52.4,-24 -52.4,-52.41 0,-28.41 24,-52.41 52.4,-52.41l312.89 0 0 -0.03c135.52,-0.62 249.61,-93.6 282.45,-219.11l-282.45 0 -1.35 0 -311.55 0 -0.01 0.06 0 -0.06c-149.72,0.01 -271.53,121.83 -271.53,271.55 0,149.73 121.82,271.55 271.56,271.55l323.76 0 0.01 -0.19 0 0.19c28.42,0 52.41,24 52.41,52.42 0,28.4 -23.99,52.4 -52.4,52.4l0 0.38 -0.02 -0.38 -332.8 0 -0.05 0.83c-126.64,9.15 -231.26,99.02 -262.47,218.31l262.52 0 21.28 0 311.52 0 0.03 -0.56 0 0.56c149.73,-0.01 271.54,-121.82 271.54,-271.54 0,-149.74 -121.82,-271.56 -271.57,-271.56z"/>
  <path class="fil1" d="M3534.05 1598.01c-40.65,40.64 -94.16,63.04 -150.67,63.04l-213.08 0 0 -427.42 213.08 0c56.51,0 110.02,22.39 150.67,63.04 40.66,40.65 63.05,94.17 63.05,150.67 0,56.51 -22.39,110.01 -63.05,150.67zm155.6 -456.93c-82.22,-82.22 -190.98,-127.5 -306.27,-127.5l-213.08 0 -43.53 0 -176.51 0 0 912.26 0 284.97c126.45,-33.09 220.04,-148.29 220.04,-284.97l0 -44.75 213.08 0c115.29,0 224.05,-45.28 306.27,-127.49 82.21,-82.21 127.48,-190.98 127.48,-306.26 0,-115.28 -45.27,-224.05 -127.48,-306.26z"/>
  <path class="fil2" d="M1633.28 1451.36c138.59,-3.82 255.4,-94.76 297.61,-220.03l-315.77 0 -297.61 0 -129.72 0 0 0.09c-178.17,0.82 -322.88,146 -322.88,324.36 0,178.07 144.25,323.04 322.05,324.34l0 0.05 130.55 0 306.69 0 306.69 0c-42.21,-125.27 -159.02,-216.22 -297.61,-220.04l-9.08 0 -9.08 0 -425.81 0c-56.57,0 -104.35,-47.79 -104.35,-104.35 0,-56.57 47.78,-104.36 104.34,-104.36l0 -0.06 425.82 0 18.16 0z"/>
  <path class="fil1" d="M1584.62 798.28l-9.08 0 -9.08 0c-138.59,3.82 -255.4,94.77 -297.61,220.04l604.31 0 9.07 0 9.09 0c138.58,-3.82 255.39,-94.77 297.61,-220.04l-604.31 0z"/>
  <path class="fil1" d="M7520.47 1337.07l-323.76 0 -0.01 0.07 0 -0.07c-28.4,0 -52.4,-24 -52.4,-52.41 0,-28.41 24,-52.41 52.4,-52.41l312.89 0 0 -0.03c135.52,-0.62 249.61,-93.6 282.45,-219.11l-282.45 0 -1.35 0 -311.55 0 -0.01 0.06 0 -0.06c-149.71,0.01 -271.52,121.83 -271.52,271.55 0,149.73 121.81,271.55 271.55,271.55l323.76 0 0.01 -0.19 0 0.19c28.42,0 52.41,24 52.41,52.42 0,28.4 -23.99,52.4 -52.4,52.4l0 0.38 -0.02 -0.38 -332.8 0 -0.05 0.83c-126.64,9.15 -231.26,99.02 -262.46,218.31l262.51 0 21.29 0 311.51 0 0.03 -0.56 0 0.56c149.73,-0.01 271.54,-121.82 271.54,-271.54 0,-149.74 -121.82,-271.56 -271.57,-271.56z"/>
  <path class="fil1" d="M10795.37 1225.26l-0.02 -0.11 -420.24 0 -0.03 0.2 0 -0.2c-57.27,0 -105.66,-48.4 -105.66,-105.67 0,-57.29 48.39,-105.69 105.69,-105.69l0 -0.4 0.01 0.4 476.93 0c135.46,0 248.97,-95.57 276.77,-222.83l-276.77 0 -476.93 0 -0.03 0.78 0 -0.78c-181.14,0 -328.5,147.38 -328.5,328.52 0,181.12 147.36,328.49 328.48,328.5l0 -0.37 0.04 0.37 418.22 0 0 0.06c57.28,0 105.67,48.39 105.67,105.67 0,57.29 -48.39,105.68 -105.69,105.68l0 1.58 -0.21 -1.58 -469.65 0 0 0.23 -0.22 -0.23c-135.46,0 -248.96,95.58 -276.76,222.82l276.76 0 0.22 -0.22 0 0.22 469.65 0 0.23 -2.08 0 2.08c181.13,0 328.51,-147.36 328.51,-328.5 0,-180.45 -146.28,-327.34 -326.47,-328.45z"/>
  <path class="fil1" d="M13550.98 1296.57c40.65,-40.66 94.16,-63.04 150.66,-63.04l0 -0.26 161.54 0 0 -0.05 0 0.28c28.12,0 51.86,23.74 51.86,51.86 0,28.11 -23.74,51.86 -51.86,51.86l-344.24 0c8.89,-14.56 19.6,-28.21 32.04,-40.65zm299.21 364.64l0 0.02 0 -0.28 -148.54 0c-56.51,0 -110.01,-22.39 -150.67,-63.05 -12.44,-12.43 -23.15,-26.08 -32.04,-40.64l344.24 0c149.93,0 271.9,-121.98 271.9,-271.9 0,-149.92 -121.96,-271.9 -271.88,-271.9l-0.02 -0.24 -166.24 0 -0.02 0.39c-113.53,1.22 -220.45,46.29 -301.53,127.37 -82.21,82.22 -127.49,190.98 -127.49,306.26 0,115.28 45.28,224.05 127.49,306.25 77.73,77.73 179.2,122.39 287.46,127.04l0 0.46 167.34 0 0 -0.02 0 0.02 284.89 0c-33.17,-126.32 -148.31,-219.78 -284.89,-219.78z"/>
  <path class="fil1" d="M13035.9 1659.8c-40.37,0 -74.49,-34.11 -74.49,-74.49l0 -353.46 74.49 0 0 -0.27c136.58,0 251.72,-93.46 284.89,-219.77l-284.89 0 -74.62 0 0 -222.1c-123.56,32.45 -215.63,143.34 -219.58,276.02l-0.32 0.04 0 519.54c0,162.41 132.12,294.53 294.52,294.53 1.71,0 3.4,0.14 5.09,0.27l279.96 -0.84c-32.99,-126.6 -148.27,-219.47 -285.05,-219.47z"/>
  <path class="fil1" d="M12564.13 1011.81l-0.04 0.55c-115.26,0.01 -224.01,45.29 -306.21,127.49 -81.42,81.42 -126.54,188.9 -127.41,302.95l-0.08 0.01 0 437.79 220.04 0 0 -434.49c0,-56.5 22.38,-110.01 63.04,-150.67 40.65,-40.64 94.16,-63.04 150.66,-63.04l0 -0.55 101.97 0 0 -220.04 -101.97 0z"/>
  <path class="fil1" d="M11621.37 1232.33c-117.85,0 -213.72,95.87 -213.72,213.72 0,117.84 95.87,213.7 213.72,213.7 117.83,0 213.7,-95.86 213.7,-213.7 0,-117.85 -95.87,-213.72 -213.7,-213.72zm0 647.47c-239.18,0 -433.76,-194.59 -433.76,-433.75 0,-239.18 194.58,-433.75 433.76,-433.75 239.17,0 433.75,194.57 433.75,433.75 0,239.16 -194.58,433.75 -433.75,433.75z"/>
 </g>
</svg>
